<svg width="254" height="546" viewBox="0 0 254 546" fill="none" xmlns="http://www.w3.org/2000/svg">
<path fill-rule="evenodd" clip-rule="evenodd" d="M104.662 344.829L98.2622 328.625L75.0814 337.312C75.0814 337.312 91.338 337.312 104.662 344.829ZM13.7465 314.058C38.5135 269.889 81.5529 244.467 81.5529 244.467L120.826 239.494C120.826 239.494 169.365 258.003 172.116 306.544C174.867 355.086 173.368 380.346 183.124 398.039C192.883 415.735 183.874 478.36 198.637 489.771C213.399 501.176 205.892 509.093 200.889 510.722C195.885 512.353 191.381 519.336 191.381 519.336C180.624 537.73 148.099 540.137 148.099 531.909C148.099 523.678 157.855 524.69 163.361 522.361C168.863 520.034 170.366 501.176 170.366 501.176C170.366 501.176 148.598 436.455 138.591 424.814C128.584 413.172 119.075 387.799 119.075 387.799C119.075 387.799 98.8102 381.975 83.7994 380.346C68.7887 378.717 46.2712 376.388 35.5113 371.963C24.7544 367.543 -11.0234 358.228 13.7465 314.058Z" fill="#FFD4AA"/>
<path fill-rule="evenodd" clip-rule="evenodd" d="M169.612 382.389C163.428 380.65 157.341 378.643 151.423 376.321C145.545 373.906 139.754 371.308 135.319 366.921C130.439 362.944 125.427 359.146 120.305 355.478C115.187 351.807 109.967 348.259 104.663 344.829L119.616 356.283C124.582 360.112 129.597 363.894 134.353 367.916C138.927 372.288 145.035 375.076 151.002 377.274C157.058 379.45 163.293 381.125 169.612 382.389Z" fill="black"/>
<path fill-rule="evenodd" clip-rule="evenodd" d="M162.146 408.526C159.36 405.718 156.19 403.258 152.883 400.985C149.578 398.706 146.036 396.731 142.414 394.909C138.754 393.156 134.979 391.587 131.063 390.4C127.176 389.134 123.127 388.342 119.075 387.797C123.008 388.89 126.925 389.917 130.685 391.369C134.469 392.74 138.186 394.276 141.745 396.095C145.37 397.794 148.851 399.755 152.251 401.83C155.657 403.904 158.959 406.126 162.146 408.526Z" fill="black"/>
<path fill-rule="evenodd" clip-rule="evenodd" d="M186.411 382.389C186.411 382.389 178.471 375.846 164.969 381.023C164.969 381.023 161.97 379.877 164.969 385.169C167.968 390.458 172.406 394.199 168.525 396.395C164.643 398.587 162.561 394.457 157.292 401.426C152.023 408.393 158.264 408.779 160.066 414.587C161.869 420.391 167.968 432.65 165.889 439.746C163.809 446.844 171.158 443.489 175.042 441.812C178.924 440.135 186.272 430.844 184.608 419.49C182.944 408.135 184.747 408.264 188.213 401.942C191.679 395.622 191.541 381.943 190.154 381.683C188.767 381.428 187.244 380.642 186.411 382.389Z" fill="#B7E8F8"/>
<path fill-rule="evenodd" clip-rule="evenodd" d="M186.965 383.492C187.098 386.058 187.127 388.626 186.893 391.167C186.665 393.695 186.291 396.261 185.097 398.469C183.969 400.683 181.985 402.659 181.143 405.315C180.301 407.905 180.252 410.567 180.335 413.157C180.655 418.309 181.336 423.427 180.425 428.394C179.969 430.855 178.951 433.238 177.183 435.133C175.45 437.071 173.001 438.364 170.464 439.357C173.108 438.649 175.695 437.462 177.702 435.579C179.683 433.673 180.9 431.161 181.512 428.598C182.697 423.416 181.97 418.175 181.774 413.103C181.647 410.581 181.671 408.023 182.397 405.67C183.046 403.308 184.999 401.387 186.1 398.899C188.24 393.875 187.692 388.543 186.965 383.492Z" fill="#FF676F"/>
<path fill-rule="evenodd" clip-rule="evenodd" d="M175.179 423.749C173.348 423.685 171.618 424.093 169.962 424.694C169.146 425.019 168.336 425.384 167.606 425.893C166.882 426.385 166.15 426.956 165.752 427.748C167.367 427.018 168.921 426.548 170.51 425.934C172.079 425.308 173.66 424.688 175.179 423.749Z" fill="#FF676F"/>
<path fill-rule="evenodd" clip-rule="evenodd" d="M175.179 420.263C173.27 420.347 171.482 420.819 169.729 421.377C167.999 421.984 166.297 422.679 164.78 423.749C166.73 423.653 168.495 423.191 170.231 422.636C171.944 422.029 173.622 421.34 175.179 420.263Z" fill="#FF676F"/>
<path fill-rule="evenodd" clip-rule="evenodd" d="M173.146 417.297C171.367 417.23 169.703 417.571 168.076 418.024C167.272 418.279 166.473 418.548 165.709 418.926C164.947 419.291 164.186 419.688 163.534 420.263C165.296 420.126 166.905 419.766 168.518 419.302C170.109 418.8 171.678 418.234 173.146 417.297Z" fill="#FF676F"/>
<path fill-rule="evenodd" clip-rule="evenodd" d="M163.532 411.427C165.297 411.284 167.016 411.249 168.692 411.486C169.522 411.617 170.353 411.743 171.108 412.006C171.492 412.13 171.85 412.266 172.164 412.433C172.47 412.591 172.628 412.862 172.573 412.758C172.585 412.707 172.597 412.774 172.274 412.851C171.939 412.892 171.553 412.878 171.149 412.854C170.333 412.809 169.496 412.621 168.648 412.489L163.532 411.427ZM163.532 411.427C165.055 412.277 166.673 412.94 168.36 413.485C169.202 413.767 170.07 413.973 170.993 414.115C171.46 414.177 171.948 414.193 172.484 414.148C172.992 414.094 173.963 413.724 174.015 412.801C173.946 411.853 173.274 411.569 172.876 411.303C172.423 411.078 171.971 410.909 171.515 410.793C170.601 410.57 169.69 410.444 168.775 410.458C166.958 410.426 165.15 410.745 163.532 411.427Z" fill="#FF676F"/>
<path d="M163.392 411.118L163.889 411.476L163.752 412.242C163.71 412.459 163.661 412.704 163.605 412.972C163.37 414.092 163.092 415.212 162.77 416.259C161.81 419.387 160.697 421.243 159.236 421.243C158.322 421.243 157.915 420.582 157.987 419.559C158.045 418.736 158.401 417.634 158.975 416.441C160.177 413.943 161.987 411.673 163.392 411.118ZM162.847 412.255C161.775 413.138 160.524 414.865 159.634 416.715C159.091 417.842 158.758 418.873 158.707 419.602C158.658 420.289 158.833 420.572 159.236 420.572C160.199 420.572 161.217 418.874 162.077 416.075C162.392 415.048 162.666 413.946 162.897 412.844L163.045 412.104L162.847 412.255Z" fill="#FF676F"/>
<path fill-rule="evenodd" clip-rule="evenodd" d="M211.485 504.921C211.485 504.921 203.995 486.382 197.919 491.113C191.842 495.85 198.628 499.529 189.725 502.03C180.823 504.529 181.529 495.863 174.746 497.632C167.963 499.398 170.086 500.844 166.974 505.447C163.868 510.049 162.879 519.514 150.02 523.199C137.163 526.881 144.37 536.346 150.02 537.661C155.672 538.973 171.638 542.526 182.801 535.165C193.962 527.798 194.245 520.963 200.18 518.202C206.115 515.44 215.392 510.706 214.781 508.077C214.169 505.447 211.485 504.921 211.485 504.921Z" fill="#B7E8F8"/>
<path fill-rule="evenodd" clip-rule="evenodd" d="M209.789 505.84C204.192 508.731 198.525 511.747 194.202 516.443C190.698 521.464 186.222 525.699 181.115 529.193C176.071 532.733 170.147 535.199 163.909 536.036C157.654 536.922 151.177 535.688 145.357 533.189L149.712 535.129C151.217 535.653 152.783 536.05 154.329 536.52C155.921 536.785 157.539 536.989 159.151 537.169C160.774 537.126 162.421 537.263 164.039 537.064C170.554 536.415 176.72 533.828 181.965 530.275C187.119 526.628 191.791 522.194 195.084 517.063C196.944 514.747 199.433 512.82 201.936 510.996C204.448 509.157 207.073 507.434 209.789 505.84Z" fill="#FF676F"/>
<path fill-rule="evenodd" clip-rule="evenodd" d="M170.941 527.262C168.642 526.009 166.252 525.083 163.861 524.162L160.262 522.853C159.074 522.397 157.86 522.026 156.787 521.312C157.447 522.437 158.67 523.127 159.769 523.781C160.902 524.439 162.11 524.93 163.322 525.408C165.773 526.293 168.288 527.002 170.941 527.262Z" fill="#FF676F"/>
<path fill-rule="evenodd" clip-rule="evenodd" d="M172.038 525.056C170.348 523.464 168.37 522.259 166.293 521.224C165.244 520.732 164.174 520.257 163.035 519.927C161.907 519.587 160.739 519.289 159.528 519.278C161.604 520.368 163.574 521.403 165.627 522.415C167.695 523.384 169.76 524.353 172.038 525.056Z" fill="#FF676F"/>
<path fill-rule="evenodd" clip-rule="evenodd" d="M174.96 522.165C173.097 520.657 170.951 519.575 168.711 518.706C167.574 518.301 166.424 517.914 165.212 517.705C164.01 517.485 162.767 517.324 161.535 517.493C163.84 518.268 165.965 519.111 168.171 519.948C170.38 520.751 172.578 521.585 174.96 522.165Z" fill="#FF676F"/>
<path fill-rule="evenodd" clip-rule="evenodd" d="M170.941 507.635C170.52 509.23 170.696 511.044 171.734 512.579C172.824 514.065 174.73 515.08 176.888 514.814C177.173 514.736 177.461 514.672 177.779 514.447C178.11 514.243 178.376 513.749 178.272 513.271C178.064 512.63 177.744 512.292 177.433 511.959C176.792 511.315 176.132 510.762 175.414 510.265C174.001 509.267 172.53 508.365 170.941 507.635ZM170.941 507.635L174.684 511.041C175.27 511.623 175.898 512.173 176.386 512.769C176.637 513.051 176.847 513.386 176.893 513.523C176.931 513.314 176.957 513.424 176.599 513.499C175.261 513.698 173.64 513.024 172.622 511.959C171.61 510.832 171.114 509.267 170.941 507.635Z" fill="#FF676F"/>
<path fill-rule="evenodd" clip-rule="evenodd" d="M170.941 507.635C170.223 508.441 169.776 508.969 169.066 509.603C168.455 510.244 167.766 510.824 167.03 511.274C166.309 511.763 165.511 512.074 164.749 512.187C163.985 512.302 163.281 512.042 163.022 511.575C162.315 510.566 164.028 509.369 165.609 508.666C167.215 507.933 169.043 507.534 170.941 507.635ZM170.941 507.635C169.138 506.981 167.053 507.107 165.185 507.716C164.219 508.038 163.391 508.387 162.508 509.079C161.675 509.726 161.04 511.097 161.761 512.227C162.445 513.335 163.89 513.657 164.951 513.443C166.024 513.204 166.999 512.756 167.708 512.093C168.461 511.47 169.092 510.767 169.62 510.013C170.154 509.313 170.606 508.288 170.941 507.635Z" fill="#FF676F"/>
<path fill-rule="evenodd" clip-rule="evenodd" d="M169.754 509.336C169.774 510.488 170.048 511.604 170.42 512.696C170.804 513.786 171.346 514.846 172.168 515.796C173.14 516.783 173.884 517.264 174.622 518.16C175.343 518.989 175.975 519.91 176.603 520.892C176.546 519.735 176.136 518.624 175.548 517.591C175.271 517.062 174.884 516.587 174.472 516.129C174.014 515.648 173.587 515.342 173.281 514.945C171.9 513.351 170.934 511.32 169.754 509.336Z" fill="#FF676F"/>
<path fill-rule="evenodd" clip-rule="evenodd" d="M169.055 510.165C167.737 510.782 166.489 511.455 165.226 512.083C163.939 512.703 162.751 513.299 161.399 513.777C160.035 514.346 158.694 515.054 157.615 516.082C156.534 517.08 155.706 518.43 155.691 519.831C156.926 517.303 159.438 516.055 161.97 515.008C163.316 514.501 164.672 513.785 165.823 512.947C166.996 512.121 168.104 511.219 169.055 510.165Z" fill="#FF676F"/>
<path fill-rule="evenodd" clip-rule="evenodd" d="M129.8 187.513C129.8 187.513 153.638 183.882 160.811 190.698L161.595 194.734C161.595 194.734 164.044 197.139 165.673 199.793C165.673 199.793 229.831 256.723 176.294 297.203L175.276 308.141L154.781 309.982L146.864 314.058C146.864 314.058 123.372 266.164 81.5524 244.467C81.5524 244.467 87.5826 238.732 99.3172 230.332C99.3172 230.332 91.0289 211.287 99.5364 192.947C99.5364 192.947 105.8 187.513 129.8 187.513Z" fill="#FF676F"/>
<path fill-rule="evenodd" clip-rule="evenodd" d="M165.673 199.793C162.896 200.985 160.122 202.133 157.258 203.07C154.443 204.103 151.579 205.01 148.681 205.767C142.89 207.294 137.016 208.456 131.075 208.928C125.131 209.435 119.173 209.006 113.339 207.949L108.999 206.926C107.571 206.524 106.218 205.912 104.811 205.426L102.686 204.691L100.696 203.692C99.375 203.011 98.0282 202.351 96.6526 201.704C101.333 205.324 106.738 208.418 112.788 209.948C118.778 211.545 125.105 212.071 131.311 211.598C137.509 211.04 143.605 209.755 149.379 207.715C155.141 205.684 160.719 203.161 165.673 199.793Z" fill="#9E360B"/>
<path fill-rule="evenodd" clip-rule="evenodd" d="M119.619 222.119C117.748 222.267 115.928 222.699 114.14 223.187C112.343 223.67 110.607 224.317 108.894 224.999C107.201 225.729 105.523 226.483 103.931 227.39C102.327 228.276 100.77 229.231 99.3167 230.334C102.798 229.051 106.114 227.602 109.477 226.225C112.834 224.832 116.185 223.48 119.619 222.119Z" fill="#9E360B"/>
<path fill-rule="evenodd" clip-rule="evenodd" d="M156.493 204.109C158.61 207.689 160.519 211.355 162.085 215.139C163.738 218.883 165.027 222.752 165.909 226.671C166.815 230.581 167.192 234.576 166.849 238.476C166.645 242.399 165.295 246.167 163.175 249.446L161.482 251.872L159.443 254.25L155.291 258.954C152.522 262.097 149.615 265.127 146.772 268.224C143.902 271.291 140.958 274.305 137.976 277.289C135.057 280.329 132.02 283.268 129.018 286.255C135.867 281.118 142.244 275.472 148.401 269.624C151.504 266.718 154.446 263.669 157.37 260.605C158.812 259.056 160.236 257.494 161.629 255.903L163.72 253.517L165.641 250.831C167.974 247.138 169.436 242.901 169.566 238.656C169.768 234.429 169.315 230.194 168.058 226.198C165.739 218.163 161.71 210.695 156.493 204.109Z" fill="#9E360B"/>
<path fill-rule="evenodd" clip-rule="evenodd" d="M176.295 297.203C172.407 298.893 168.75 300.922 165.148 303.029C161.575 305.178 158.063 307.411 154.781 309.982C158.668 308.297 162.325 306.268 165.924 304.158C169.494 302.006 173.01 299.773 176.295 297.203Z" fill="#9E360B"/>
<path fill-rule="evenodd" clip-rule="evenodd" d="M145.787 311.986C137.652 314.243 129.721 316.98 121.77 319.68C113.882 322.525 105.975 325.329 98.2632 328.624C106.39 326.376 114.329 323.633 122.28 320.933C130.171 318.083 138.084 315.276 145.787 311.986Z" fill="black"/>
<path fill-rule="evenodd" clip-rule="evenodd" d="M75.0806 337.313C73.754 337.297 72.4591 337.56 71.1959 337.89C69.927 338.206 68.7158 338.687 67.5334 339.213C66.3769 339.782 65.2263 340.375 64.1938 341.126C63.1412 341.848 62.1491 342.65 61.284 343.579C63.692 342.578 65.9011 341.453 68.1765 340.412C70.4432 339.352 72.7071 338.351 75.0806 337.313Z" fill="black"/>
<path fill-rule="evenodd" clip-rule="evenodd" d="M116.069 53.7249C116.069 53.7249 136.496 41.34 135.395 57.0714C134.29 72.8027 131.617 90.9332 163.305 99.3597C163.305 99.3597 175.115 104.856 184.167 111.629C193.22 118.408 238.053 142.765 241.026 154.854C244 166.941 235.93 199.722 232.386 210.163C228.845 220.603 227.662 218.77 230.223 225.181C232.781 231.589 233.765 239.098 232.781 248.99C231.795 258.879 230.811 262.907 226.284 253.751C226.284 253.751 225.695 258.514 226.483 261.992C227.27 265.473 226.088 269.869 221.563 261.992C221.563 261.992 222.742 269.136 220.184 269.32C217.626 269.501 207.783 254.118 215.264 221.7C215.264 221.7 217.231 165.758 217.822 159.207C217.822 159.207 178.656 143.129 176.294 142.765C176.294 142.765 161.73 181.843 161.139 189.685C160.548 197.526 118.431 206.133 99.536 192.948C99.536 192.948 102.094 179.943 95.5995 171.702C95.5995 171.702 81.8231 191.735 77.2953 189.685C72.7705 187.635 56.4332 171.702 50.1347 161.08C43.8392 150.458 38.3251 125.914 31.6345 122.436C24.9438 118.958 22.4435 115.995 19.0433 110.108C15.6461 104.217 11.0751 98.3292 15.5307 98.0018C15.5307 98.0018 11.5452 93.4209 13.0679 91.0218C14.5906 88.6226 16.7016 91.1291 16.7016 91.1291C16.7016 91.1291 12.4825 85.7887 14.5906 84.3718C16.7016 82.9548 19.6317 86.7682 19.6317 86.7682C19.6317 86.7682 17.9907 84.0444 19.5134 83.2795C21.0361 82.5174 35.1009 96.6949 35.1009 96.6949C35.1009 96.6949 33.9301 93.4209 34.8644 89.1674C35.8017 84.9165 38.4982 92.004 39.3201 93.5309C40.1391 95.0552 47.4037 104.655 46.2328 112.942C46.2328 112.942 62.028 137.54 66.3394 141.833C70.6537 146.124 76.6032 151.384 78.2413 156.644C78.2413 156.644 92.2225 137.228 94.3075 123.265C96.3897 109.303 102.489 103.35 106.356 102.105C110.224 100.857 116.023 99.6147 116.47 91.7222C116.47 91.7222 99.1323 65.4845 116.069 53.7249Z" fill="#FFD4AA"/>
<path fill-rule="evenodd" clip-rule="evenodd" d="M220.261 244.466C219.517 247.38 219.326 250.351 219.404 253.324C219.468 254.808 219.606 256.301 219.929 257.768C220.246 259.228 220.661 260.731 221.561 261.992C221.224 260.535 221.114 259.094 221.031 257.64L220.846 253.276C220.711 250.359 220.638 247.434 220.261 244.466Z" fill="#703312"/>
<path fill-rule="evenodd" clip-rule="evenodd" d="M226.475 242.281C226.002 243.182 225.751 244.135 225.549 245.093C225.333 246.051 225.261 247.028 225.232 247.999C225.226 249.942 225.474 251.909 226.284 253.75C226.466 252.763 226.501 251.81 226.57 250.857C226.639 249.907 226.648 248.963 226.674 248.021C226.679 246.126 226.688 244.25 226.475 242.281Z" fill="#703312"/>
<path fill-rule="evenodd" clip-rule="evenodd" d="M81.5527 171.335C81.5527 171.335 80.428 160.928 78.242 156.642L81.5527 171.335Z" fill="#FFD4AA"/>
<path fill-rule="evenodd" clip-rule="evenodd" d="M35.1001 96.6945C35.9105 98.2537 35.9739 99.9658 35.6884 101.557C35.3971 103.127 34.6012 104.7 34.2234 106.468C33.86 108.199 33.6985 110 34.0157 111.766C34.3041 113.523 35.0424 115.252 36.2998 116.548C35.5586 114.956 35.1722 113.317 35.1174 111.666C35.077 110.016 35.2645 108.368 35.6365 106.739C35.9278 105.132 36.7064 103.53 36.7872 101.67C36.8795 99.8853 36.4325 97.9665 35.1001 96.6945Z" fill="black"/>
<path fill-rule="evenodd" clip-rule="evenodd" d="M29.1804 98.7357C28.0384 96.4304 26.5532 94.3614 24.9843 92.354C23.3722 90.3735 21.6765 88.4494 19.6318 86.7694C20.7681 89.0773 22.2562 91.1437 23.8279 93.1511C25.4429 95.1316 27.1386 97.053 29.1804 98.7357Z" fill="black"/>
<path fill-rule="evenodd" clip-rule="evenodd" d="M25.6079 101.11C24.4399 99.1674 22.9922 97.4821 21.5099 95.829C19.9958 94.192 18.4068 92.6677 16.7024 91.1327C17.0542 92.2061 17.6685 93.1669 18.303 94.0846C18.9317 95.0159 19.6642 95.8693 20.414 96.7012C21.9569 98.3355 23.6151 99.8759 25.6079 101.11Z" fill="black"/>
<path fill-rule="evenodd" clip-rule="evenodd" d="M24.4053 106.622C23.2402 104.872 21.8069 103.399 20.3274 101.974C18.822 100.557 17.233 99.2819 15.5286 98.0018C15.9035 98.984 16.5438 99.8293 17.184 100.64C17.8213 101.458 18.5596 102.194 19.3008 102.915C20.8379 104.316 22.4673 105.629 24.4053 106.622Z" fill="black"/>
<path fill-rule="evenodd" clip-rule="evenodd" d="M176.295 142.767C174.043 140.687 170.974 139.42 167.808 138.956C164.638 138.478 161.258 138.988 158.524 140.442C160.099 140.26 161.593 140.005 163.113 140.013C164.618 139.981 166.115 140.045 167.591 140.279C170.562 140.676 173.428 141.572 176.295 142.767Z" fill="black"/>
<path fill-rule="evenodd" clip-rule="evenodd" d="M100.136 117.927C99.992 107.853 105.272 101.748 105.523 101.463C105.904 101.034 106.585 100.978 107.046 101.329C107.505 101.683 107.571 102.32 107.19 102.749C107.141 102.8 103.588 106.906 102.562 113.838C107.505 104.085 113.111 97.6688 113.379 97.3629C113.76 96.9362 114.44 96.8771 114.902 97.2233C115.363 97.5776 115.432 98.2109 115.052 98.6403C114.983 98.7181 108.655 105.972 103.611 116.548H152.263C152.136 108.036 151.302 95.2026 151.294 95.0657C151.259 94.5129 151.712 94.0379 152.306 94.003C152.894 93.9225 153.416 94.3894 153.454 94.9476C153.46 95.0684 154.134 105.47 154.365 113.795C158.573 106.307 163.801 99.8774 164.078 99.5393C164.439 99.0992 165.113 99.0133 165.595 99.3514C166.068 99.6869 166.16 100.318 165.8 100.763C165.716 100.862 157.627 110.8 153.563 120.144C149.013 156.333 172.355 153.585 172.355 153.585L162.478 183.456C123.522 191.534 99.9661 184.779 99.9661 184.779C99.0115 179.227 91.6921 168.065 85.0246 156.644C79.2308 146.717 95.7238 123.764 100.136 117.927Z" fill="#FF676F"/>
<path fill-rule="evenodd" clip-rule="evenodd" d="M135.393 57.0715C135.393 57.0715 151.69 39.5421 151.203 30.2568C150.718 20.9715 146.773 8.88453 120.007 12.5074C93.2391 16.1303 92.2643 35.8307 92.2643 42.6229C92.2643 49.4151 83.8923 51.2159 83.7106 55.1822C83.5289 59.1432 90.3263 59.4814 88.6969 61.4216C87.0646 63.3619 88.3335 64.9613 90.0552 65.4685C90.0552 65.4685 88.2412 66.9874 89.0574 68.4205C89.8735 69.8562 92.4114 70.2776 91.2319 73.989C90.0552 77.6978 93.4323 83.6607 106.202 79.8232C118.978 75.9856 125.896 66.4507 128.423 61.4968C128.423 61.4968 131.938 61.4941 135.393 57.0715Z" fill="#FFD4AA"/>
<path fill-rule="evenodd" clip-rule="evenodd" d="M176.066 87.9645C179.706 94.2065 191.135 105.18 205.713 105.064C220.291 104.952 230.093 106.092 233.277 108.711C233.277 108.711 228.256 102.899 212.698 101.989C197.139 101.077 188.807 96.1736 184.029 87.5082C179.25 78.8482 176.802 55.2485 176.802 55.2485C176.802 55.2485 172.04 81.0622 176.066 87.9645ZM96.2803 18.3596C100.448 13.7759 104.442 17.7477 104.442 17.7477C104.442 17.7477 110.091 7.09107 127.236 5.16155C144.384 3.22935 156.268 19.7524 156.268 19.7524C166.397 9.96522 188.219 7.09107 204.975 26.4614C221.73 45.8317 208.481 61.5443 211.991 78.4027C215.498 95.2666 232.254 82.2108 242.552 93.8174C252.853 105.419 240.631 117.75 240.631 117.75C239.657 121.738 235.956 123.265 235.956 123.265L236.216 118.746C234.872 118.174 233.892 114.411 233.892 114.411C228.747 106.092 215.27 107.233 204.121 107.689C192.972 108.145 182.105 101.326 174.596 91.955C165.869 81.0622 172.759 57.755 173.984 47.8391C175.21 37.9204 161.609 27.5429 161.609 27.5429C161.609 27.5429 167.735 39.3991 160.141 56.958C152.545 74.5115 134.29 72.8047 134.29 72.8047C130.737 67.671 135.392 57.0707 135.392 57.0707C139.559 52.2831 138.824 47.1521 134.045 46.61C129.266 46.0652 126.818 51.4861 126.328 54.2234C125.837 56.958 123.455 55.6779 123.876 50.6864C124.3 45.6949 122.408 32.5586 120.693 29.4831C118.977 26.4077 117.999 27.5429 117.999 27.5429C117.999 27.5429 122.654 34.8396 122.654 48.2953C122.654 61.7429 129.266 65.6234 131.597 67.4455C133.924 69.2704 131.963 69.3831 131.963 69.3831C120.693 65.9642 119.346 54.6796 118.489 46.61C117.63 38.5403 117.264 30.9672 113.711 24.9237C110.158 18.8802 103.037 18.7004 103.037 18.7004C98.7114 15.3405 94.4807 25.5007 93.4396 28.0581C92.3956 30.6129 92.113 22.9432 96.2803 18.3596Z" fill="#110B05"/>
<path fill-rule="evenodd" clip-rule="evenodd" d="M241.024 110.448C241.085 106.514 240.912 102.41 239.026 98.707C238.097 96.8687 236.6 95.2156 234.671 94.1636C232.759 93.0822 230.582 92.5427 228.448 92.2314C224.165 91.6088 219.871 91.6598 215.854 90.734C211.822 89.8994 208.358 87.6693 206.265 84.4329L206.299 84.4892C204.353 80.9495 203.225 77.0798 203.196 73.1214C203.17 69.1604 203.963 65.1833 204.97 61.2438L206.521 55.3076C207.006 53.1795 207.156 51.0541 207.078 48.9501C206.939 44.7422 205.93 40.6229 204.378 36.7102C203.695 34.7189 202.593 32.8833 201.616 31.0048C200.399 29.2443 199.265 27.4275 197.708 25.8979C196.35 24.2126 194.524 22.9379 192.86 21.537C190.928 20.4689 189.151 19.1164 186.989 18.4723C182.899 16.6314 178.299 16.3845 173.896 16.3999C171.695 16.6582 169.498 16.9292 167.332 17.2942L161.013 19.0788L167.415 17.6726C169.578 17.4123 171.759 17.2459 173.919 17.0903C178.233 17.3049 182.625 17.7075 186.469 19.5565C188.511 20.2167 190.158 21.5692 191.955 22.6212C193.495 24.0086 195.182 25.2458 196.419 26.8935C197.861 28.3749 198.844 30.1675 200.006 31.8367C200.915 33.6428 201.953 35.4006 202.585 37.3193C204.03 41.0683 204.952 45.0401 205.036 49.0092C205.094 50.9897 204.918 52.9541 204.477 54.8299C203.955 56.797 203.349 58.7829 202.873 60.7929C201.898 64.7995 201.102 68.9296 201.174 73.1563C201.247 77.3884 202.524 81.5936 204.624 85.2997L204.644 85.3372L204.661 85.356C205.858 87.1192 207.418 88.7079 209.301 89.8913C211.187 91.0694 213.339 91.794 215.487 92.2153C219.804 93.0687 224.119 92.8889 228.266 93.38C232.373 93.7826 236.488 95.4384 238.385 99.0129C240.372 102.451 240.782 106.524 241.024 110.448Z" fill="#6F3C00"/>
<path fill-rule="evenodd" clip-rule="evenodd" d="M159.238 20.3686C165.603 19.2791 172.337 19.5555 178.327 21.7346C184.365 23.8493 189.153 28.4114 191.558 33.9128C193.926 39.4115 194.952 45.4899 194.998 51.418C195.091 57.4266 193.121 63.1723 192.019 69.2238C190.909 75.321 192.204 81.7858 195.546 87.1343C198.82 92.5176 204.807 96.6155 211.492 97.3293C213.141 97.5333 214.805 97.5762 216.458 97.4876C218.119 97.4179 219.745 97.0851 221.3 97.0153C224.458 96.8033 227.662 97.646 230.185 99.4413C232.746 101.202 234.597 103.765 235.944 106.48C237.285 109.21 238.188 112.146 238.655 115.135C238.306 112.129 237.522 109.156 236.273 106.344C235.016 103.553 233.242 100.858 230.623 98.9126C228.019 96.967 224.593 96.0009 221.262 96.1566C219.569 96.2102 217.998 96.5054 216.406 96.5403C214.814 96.5913 213.219 96.5215 211.653 96.2961C205.343 95.4561 199.771 91.6749 196.688 86.5143C193.536 81.3886 192.365 75.2566 193.435 69.417C194.451 63.5694 196.438 57.5984 196.302 51.4234C196.192 45.3021 195.166 39.1861 192.55 33.5076C189.94 27.8559 184.827 23.1569 178.569 21.1415C172.34 19.11 165.562 19.0751 159.238 20.3686Z" fill="#6F3C00"/>
<path fill-rule="evenodd" clip-rule="evenodd" d="M159.237 22.2974C165.403 22.3457 171.956 23.5828 176.33 27.5948C180.694 31.6256 182.136 37.5135 182.796 43.141C183.987 54.5786 182.623 66.2979 184.789 77.9985C185.989 83.7521 188.365 89.6829 193.074 93.9499C197.769 98.198 204.108 100.471 210.381 101.182C213.513 101.558 216.722 101.577 219.716 101.944C222.75 102.342 225.755 103.045 228.451 104.341C231.13 105.634 233.443 107.671 234.672 110.296C235.949 112.899 236.255 115.851 236.218 118.744C236.483 115.864 236.394 112.859 235.197 110.086C234.081 107.298 231.733 104.982 228.967 103.479C226.161 102.003 223.041 101.193 219.921 100.688C216.737 100.205 213.671 100.106 210.634 99.6499C204.61 98.7267 198.715 96.6147 194.464 92.6537C190.193 88.7061 188.016 83.1805 186.911 77.6254C184.625 66.3623 185.997 54.6242 184.44 42.9558C183.566 37.2263 181.885 31.0513 177.054 26.881C172.129 22.869 165.383 21.9082 159.237 22.2974Z" fill="#6F3C00"/>
<path fill-rule="evenodd" clip-rule="evenodd" d="M134.339 9.85425C129.667 8.59832 124.626 8.55538 119.844 9.5188C117.456 10.0206 115.132 10.8338 113.007 11.9609C110.824 13.0155 108.986 14.5667 107.285 16.1607C109.174 14.7438 111.089 13.3671 113.266 12.4144C115.4 11.4081 117.655 10.611 120.003 10.1709C122.33 9.65566 124.727 9.41951 127.129 9.36583C129.531 9.34168 131.951 9.46244 134.339 9.85425Z" fill="#782001"/>
<path fill-rule="evenodd" clip-rule="evenodd" d="M155.689 21.3222C153.235 18.703 150.175 16.6044 146.893 14.8869C143.606 13.1613 139.955 11.994 136.188 11.425C134.302 11.1164 132.384 11.1084 130.472 11.1111C128.58 11.3472 126.645 11.3875 124.84 12.002C123.937 12.2757 123 12.4448 122.135 12.8044L119.554 13.8859C117.87 14.6588 116.364 15.7403 114.85 16.7144C118.282 15.3726 121.619 13.9772 125.206 13.5129C128.73 12.9279 132.338 12.8259 135.859 13.4136C139.389 13.8993 142.83 14.9325 146.155 16.2663C147.816 16.9425 149.446 17.7047 151.017 18.5769C152.644 19.3712 154.161 20.3373 155.689 21.3222Z" fill="#6F3C00"/>
<path fill-rule="evenodd" clip-rule="evenodd" d="M156.979 23.3217C151.142 20.8984 144.665 19.7606 138.231 19.9967C135.01 20.1604 131.817 20.8125 128.821 21.9074C125.787 22.9755 123.165 24.8004 120.812 26.7889C123.344 24.9829 126.021 23.3512 129.023 22.3878C131.996 21.419 135.105 20.7776 138.268 20.6649C141.426 20.4959 144.599 20.7132 147.731 21.1695C150.86 21.6498 153.974 22.3234 156.979 23.3217Z" fill="#6F3C00"/>
<path fill-rule="evenodd" clip-rule="evenodd" d="M156.979 25.5888C151.915 22.5402 145.527 21.5258 139.477 22.1672C136.454 22.5563 133.438 23.2138 130.698 24.4617C129.279 24.9743 128.013 25.7793 126.716 26.4851C125.475 27.2822 124.293 28.1597 123.16 29.056C125.891 27.8887 128.544 26.7428 131.315 25.9243C134.046 25.0252 136.887 24.5019 139.728 24.1638C142.574 23.7961 145.467 23.8337 148.348 24.0538C151.229 24.3141 154.124 24.7596 156.979 25.5888Z" fill="#6F3C00"/>
<path fill-rule="evenodd" clip-rule="evenodd" d="M156.979 27.8558C152.613 31.0332 147.944 33.7034 143.027 35.9147C140.576 37.0257 138.058 38.0213 135.483 38.8801C132.922 39.7925 130.269 40.4473 127.604 41.1906C130.369 40.9974 133.138 40.5842 135.82 39.8676C138.531 39.2182 141.129 38.2306 143.656 37.1196C146.173 35.9844 148.587 34.648 150.828 33.0996C153.072 31.5565 155.209 29.8604 156.979 27.8558Z" fill="#6F3C00"/>
<path fill-rule="evenodd" clip-rule="evenodd" d="M156.979 29.0561C155.402 31.1064 153.265 32.6924 151.087 34.1335C148.884 35.5585 146.537 36.7956 144.094 37.8342C141.689 38.9533 139.154 39.8093 136.628 40.6788C134.078 41.492 131.497 42.2246 128.893 42.925L132.876 42.1682L136.801 41.1726C139.385 40.3971 141.945 39.5249 144.403 38.4353C146.851 37.3351 149.242 36.0872 151.41 34.5468C153.568 33.0171 155.615 31.2486 156.979 29.0561Z" fill="#6F3C00"/>
<path fill-rule="evenodd" clip-rule="evenodd" d="M158.269 30.2563C156.328 35.7631 153.874 41.0417 150.837 46.0199C149.358 48.529 147.685 50.9309 145.891 53.2576C144.138 55.6245 142.087 57.7714 140.069 59.9934C144.971 56.3974 149.046 51.7789 152.095 46.6747C153.623 44.1252 154.967 41.4738 155.991 38.7124C157.035 35.967 157.885 33.1439 158.269 30.2563Z" fill="#6F3C00"/>
<path fill-rule="evenodd" clip-rule="evenodd" d="M159.238 32.324C159.22 35.7188 158.672 39.0841 157.842 42.3661C156.98 45.6428 155.742 48.839 154.075 51.8312C152.486 54.8503 150.609 57.7647 148.276 60.3517C146.029 63.0112 143.362 65.3218 140.642 67.5867C142.047 66.5052 143.546 65.5177 144.879 64.3556C146.171 63.148 147.52 61.986 148.645 60.6388C151.065 58.0706 153.04 55.1616 154.721 52.1264C156.342 49.0537 157.516 45.7958 158.306 42.4654C159.119 39.1431 159.5 35.7161 159.238 32.324Z" fill="#6F3C00"/>
<path fill-rule="evenodd" clip-rule="evenodd" d="M107.713 40.1889C107.713 40.1889 106.078 39.0215 104.169 39.2255C102.26 39.4294 96.2095 38.6163 95.8807 38.1601C95.5548 37.7012 94.955 36.6385 94.955 36.6385C94.955 36.6385 102.534 33.1873 107.713 40.1889Z" fill="black"/>
<path fill-rule="evenodd" clip-rule="evenodd" d="M96.1534 48.3078C96.1534 48.3078 99.4266 44.9077 102.152 45.1116C104.877 45.3156 106.186 46.33 106.077 47.5966C105.967 48.866 103.732 48.4608 102.587 48.3078C101.442 48.1548 97.7886 47.865 97.0272 48.4903C97.0272 48.4903 96.8023 48.5574 96.9176 48.2219C96.9176 48.2219 96.1736 48.4822 96.1534 48.3078Z" fill="black"/>
<path fill-rule="evenodd" clip-rule="evenodd" d="M86.439 57.454C86.439 57.454 87.0504 57.4192 87.6848 57.454C88.3222 57.4916 89.9112 58.0364 89.8478 58.5677C89.7843 59.0991 88.6913 58.8522 87.979 58.5677C87.2667 58.286 85.8939 57.7036 86.439 57.454Z" fill="black"/>
<path fill-rule="evenodd" clip-rule="evenodd" d="M97.4661 64.4513C97.4661 64.4513 95.3896 67.3523 92.7797 67.3711C90.1698 67.3925 89.3248 66.295 89.3248 66.295C89.3248 66.295 89.7545 65.6697 90.0544 65.4684C90.0544 65.4684 88.8057 65.1544 88.4163 64.4513C88.4163 64.4513 88.7365 64.1615 89.4315 64.4513C90.1236 64.7385 93.5036 65.0122 95.0868 64.3198C96.6701 63.6301 97.4661 64.4513 97.4661 64.4513Z" fill="#F83C1F"/>
<path fill-rule="evenodd" clip-rule="evenodd" d="M129.321 57.2366C129.428 57.2366 129.535 57.2151 129.636 57.1695C129.826 57.0809 134.238 55.0306 133.445 51.9042C133.197 50.922 132.718 50.3612 132.023 50.2377C130.798 50.023 129.693 51.3917 129.483 51.6708C129.252 51.974 129.33 52.39 129.653 52.6047C129.979 52.814 130.429 52.7469 130.659 52.4463C131.031 51.9552 131.582 51.4936 131.752 51.5554C131.747 51.5581 131.905 51.6761 132.041 52.2129C132.569 54.298 129.036 55.9484 129.001 55.9619C128.646 56.1282 128.496 56.5281 128.672 56.8609C128.799 57.097 129.056 57.2366 129.321 57.2366Z" fill="black"/>
</svg>
